<svg width="30" height="30" viewBox="0 0 30 30" fill="none" xmlns="http://www.w3.org/2000/svg">
<path fill-rule="evenodd" clip-rule="evenodd" d="M7.91671 0.833313C6.03809 0.833313 4.23642 1.57959 2.90803 2.90797C1.57965 4.23636 0.833374 6.03803 0.833374 7.91665V22.0833C0.833374 23.9619 1.57965 25.7636 2.90803 27.092C4.23642 28.4204 6.03809 29.1666 7.91671 29.1666H22.0834C23.962 29.1666 25.7637 28.4204 27.092 27.092C28.4204 25.7636 29.1667 23.9619 29.1667 22.0833V7.91665C29.1667 6.03803 28.4204 4.23636 27.092 2.90797C25.7637 1.57959 23.962 0.833313 22.0834 0.833313H7.91671ZM20.2842 13.1356C20.4115 12.9998 20.5107 12.8403 20.5763 12.6661C20.6419 12.492 20.6725 12.3066 20.6665 12.1206C20.6604 11.9346 20.6178 11.7516 20.541 11.582C20.4643 11.4125 20.3549 11.2597 20.219 11.1325C20.0832 11.0052 19.9237 10.906 19.7495 10.8404C19.5754 10.7748 19.39 10.7441 19.204 10.7502C19.018 10.7562 18.835 10.7989 18.6654 10.8756C18.4959 10.9524 18.3431 11.0618 18.2159 11.1976L13.8483 15.8585L11.6907 13.9417C11.408 13.7067 11.0451 13.5908 10.6785 13.6185C10.3119 13.6461 9.97047 13.8152 9.72625 14.0899C9.48202 14.3647 9.35416 14.7236 9.36967 15.0909C9.38519 15.4582 9.54286 15.805 9.80937 16.0582L12.9969 18.8916C13.2727 19.1366 13.6332 19.2643 14.0017 19.2476C14.3702 19.231 14.7177 19.0712 14.9703 18.8023L20.2828 13.1356H20.2842Z" fill="#FFD703"/>
</svg>
