<svg width="388" height="79" viewBox="0 0 388 79" fill="none" xmlns="http://www.w3.org/2000/svg">
<path d="M12.4992 0.89624H39.4832L37.4239 10.6151H22.3042L20.6474 18.4134H34.8149L32.833 27.7521H18.6732L14.6862 46.5573H2.81802L12.4992 0.89624Z" fill="white"/>
<path d="M43.3773 0.89624H55.2417L45.5605 46.5573H33.6768L43.3773 0.89624Z" fill="white"/>
<path d="M64.8996 10.9992H55.9694L58.1139 0.911743H87.8424L85.7018 10.9992H76.7678L69.2311 46.5573H57.3629L64.8996 10.9992Z" fill="white"/>
<path d="M91.1559 0.89624H104.429L106.121 29.0324H106.249L112.206 0.89624H123.308L113.626 46.5573H100.613L98.6771 18.3591H98.5493L92.5765 46.5573H81.4786L91.1559 0.89624Z" fill="white"/>
<path d="M129.563 0.89624H156.547L154.484 10.6151H139.353L137.696 18.4134H151.859L149.881 27.7482H135.733L133.798 36.8307H149.49L147.431 46.5302H119.882L129.563 0.89624Z" fill="white"/>
<path d="M177.04 14.0681L177.268 12.9817C177.837 10.2969 177.225 8.0583 174.945 8.0583C172.395 8.0583 170.823 10.0409 170.393 12.0894C168.466 21.1021 188.796 16.683 185.258 33.3661C183.194 43.0655 176.598 47.4341 166.135 47.4341C156.307 47.4341 151.542 44.0471 153.551 34.5843L153.888 32.9859H165.369L165.14 34.0722C164.316 37.9753 165.609 39.3797 167.904 39.3797C170.327 39.3797 172.143 37.4631 172.669 34.9684C174.582 25.9557 155.006 30.4291 158.436 14.2504C160.383 5.04371 166.371 0 176.385 0C186.721 0 190.212 4.26775 188.141 14.0681H177.04Z" fill="white"/>
<path d="M211.932 14.0681L212.164 12.9817C212.733 10.2969 212.122 8.0583 209.842 8.0583C207.291 8.0583 205.723 10.0409 205.29 12.0894C203.362 21.1021 223.688 16.683 220.15 33.3661C218.091 43.0655 211.491 47.4341 201.028 47.4341C191.203 47.4341 186.434 44.0471 188.443 34.5843L188.784 32.9859H200.265L200.033 34.0722C199.208 37.9753 200.505 39.3797 202.8 39.3797C205.224 39.3797 207.035 37.4631 207.562 34.9684C209.474 25.9557 189.895 30.4291 193.325 14.2504C195.279 5.04371 201.287 0 211.282 0C221.617 0 225.109 4.26775 223.034 14.0681H211.932Z" fill="white"/>
<path d="M248.667 0.89624H266.473C275.523 0.89624 278.318 6.98361 276.622 14.9643C274.641 24.299 268.316 29.1565 258.681 29.1565H254.539L250.835 46.5573H238.986L248.667 0.89624ZM256.354 20.5861H258.576C261.572 20.5861 263.535 18.8596 264.352 15.0264C265.157 11.2514 263.945 9.46667 260.945 9.46667H258.716L256.354 20.5861Z" fill="white"/>
<path d="M289.118 0.89624H304.048L305.468 46.5573H292.834L293.318 38.565H283.877L280.97 46.5573H268.339L289.118 0.89624ZM294.665 10.231H294.537L287.182 29.6066H293.802L294.665 10.231Z" fill="white"/>
<path d="M317.762 0.89624H336.343C345.401 0.89624 347.762 6.01367 346.268 13.0477C344.983 19.1195 341.781 23.0847 336.18 23.9111L336.153 24.0391C341.785 24.5474 342.734 28.1943 341.449 34.2662L340.62 38.1692C340.121 40.532 339.459 43.6009 339.846 44.4972C340.055 45.0093 340.202 45.5175 340.887 45.9016L340.748 46.5418H328.113C327.478 44.1131 328.404 39.76 328.81 37.8433L329.46 34.7744C330.56 29.5949 329.824 28.2525 326.956 28.2525H323.828L319.957 46.5379H308.081L317.762 0.89624ZM325.543 20.2059H327.904C331.284 20.2059 333.324 18.0332 334.032 14.7742C334.806 11.0651 333.691 9.46667 330.118 9.46667H327.819L325.543 20.2059Z" fill="white"/>
<path d="M354.575 0.89624H366.435L362.704 18.4134H362.835L375.365 0.89624H388L372.284 20.846L379.736 46.5573H366.187L362.611 30.6502L359.309 34.4873L356.758 46.5573H344.897L354.575 0.89624Z" fill="white"/>
<path d="M376.91 60.5012H0L0.925146 56.1326H377.839L376.91 60.5012Z" fill="#FFD703"/>
<path d="M40.6213 77.6964L41.6664 76.4432C42.322 77.0495 43.1747 77.3969 44.0664 77.4209C44.7902 77.4209 45.2277 77.1338 45.2277 76.645V76.6217C45.2277 76.1717 44.9528 75.9427 43.6096 75.5974C41.9916 75.1823 40.9464 74.7361 40.9464 73.1338V73.1105C40.9464 71.6478 42.1077 70.6818 43.7606 70.6818C44.8442 70.6638 45.8999 71.0261 46.745 71.706L45.8276 73.0407C45.2247 72.577 44.4962 72.3065 43.7374 72.2647C43.0599 72.2647 42.7038 72.5751 42.7038 72.967V72.9902C42.7038 73.5179 43.0483 73.6925 44.438 74.0494C46.0676 74.4762 46.985 75.062 46.985 76.4665V76.4898C46.985 78.0883 45.7696 78.9884 44.0354 78.9884C42.7776 78.9929 41.5622 78.533 40.6213 77.6964Z" fill="white"/>
<path d="M53.3372 70.8176H59.399V72.3928H55.0946V74.0261H58.8842V75.6013H55.0946V77.2929H59.4571V78.8681H53.3372V70.8176Z" fill="white"/>
<path d="M74.1123 70.8176H77.2477C79.7716 70.8176 81.5057 72.5557 81.5057 74.8215V74.8448C81.5057 77.1106 79.76 78.872 77.2477 78.872H74.1123V70.8176ZM75.8813 72.416V77.2696H77.2477C77.5689 77.2885 77.8904 77.2395 78.1914 77.1256C78.4924 77.0117 78.7661 76.8356 78.9947 76.6087C79.2232 76.3818 79.4016 76.1092 79.5181 75.8086C79.6346 75.508 79.6867 75.1862 79.6709 74.8642V74.8409C79.6852 74.5181 79.6323 74.1959 79.5156 73.8948C79.3989 73.5936 79.2209 73.3201 78.9929 73.0917C78.765 72.8632 78.4921 72.6848 78.1917 72.5679C77.8912 72.4509 77.5698 72.3978 77.2477 72.4122L75.8813 72.416Z" fill="white"/>
<path d="M87.9044 70.8175H93.9662V72.3927H89.6617V74.0261H93.4514V75.6013H89.6617V77.2929H94.0242V78.8681H87.9044V70.8175ZM91.6359 68.3772L93.1378 69.0328L91.5895 70.1968H90.2579L91.6359 68.3772Z" fill="white"/>
<path d="M100.415 70.8176H103.698C105.633 70.8176 106.775 71.9582 106.775 73.6032V73.6265C106.775 75.4888 105.327 76.4588 103.527 76.4588H102.192V78.8759H100.423L100.415 70.8176ZM103.585 74.8797C104.468 74.8797 104.987 74.352 104.987 73.6614V73.6382C104.987 72.8622 104.437 72.4199 103.551 72.4199H102.192V74.8797H103.585Z" fill="white"/>
<path d="M114.854 70.7594H116.483L119.928 78.872H118.063L117.327 77.064H113.928L113.193 78.872H111.389L114.854 70.7594ZM116.712 75.5005L115.643 72.8894L114.579 75.5005H116.712Z" fill="white"/>
<path d="M125.32 77.6964L126.366 76.4432C127.021 77.0495 127.874 77.3969 128.766 77.4209C129.489 77.4209 129.927 77.1338 129.927 76.645V76.6217C129.927 76.1717 129.652 75.9427 128.309 75.5974C126.691 75.1823 125.646 74.7361 125.646 73.1338V73.1105C125.646 71.6478 126.807 70.6818 128.46 70.6818C129.543 70.6638 130.599 71.0261 131.444 71.706L130.527 73.0407C129.924 72.577 129.195 72.3065 128.437 72.2647C127.759 72.2647 127.403 72.5751 127.403 72.967V72.9902C127.403 73.5179 127.748 73.6925 129.137 74.0494C130.767 74.4762 131.684 75.062 131.684 76.4665V76.4898C131.684 78.0883 130.469 78.9884 128.735 78.9884C127.477 78.9933 126.261 78.5333 125.32 77.6964Z" fill="white"/>
<path d="M137.371 77.6964L138.416 76.4432C139.071 77.0495 139.924 77.3969 140.816 77.4209C141.54 77.4209 141.977 77.1338 141.977 76.645V76.6217C141.977 76.1717 141.702 75.9427 140.359 75.5974C138.741 75.1823 137.696 74.7361 137.696 73.1338V73.1105C137.696 71.6478 138.857 70.6818 140.51 70.6818C141.593 70.6638 142.649 71.0261 143.494 71.706L142.577 73.0407C141.974 72.577 141.246 72.3065 140.487 72.2647C139.809 72.2647 139.453 72.5751 139.453 72.967V72.9902C139.453 73.5179 139.798 73.6925 141.187 74.0494C142.817 74.4762 143.734 75.062 143.734 76.4665V76.4898C143.734 78.0883 142.519 78.9884 140.785 78.9884C139.527 78.9933 138.311 78.5333 137.371 77.6964Z" fill="white"/>
<path d="M150.087 70.8176H156.148V72.3928H151.844V74.0261H155.634V75.6013H151.844V77.2929H156.206V78.8681H150.087V70.8176Z" fill="white"/>
<path d="M162.578 70.8176H166.251C166.676 70.791 167.103 70.8497 167.505 70.9903C167.907 71.1309 168.277 71.3505 168.593 71.6362C168.825 71.8816 169.006 72.1712 169.124 72.4877C169.242 72.8042 169.296 73.1413 169.282 73.4791V73.5024C169.307 74.0499 169.152 74.5905 168.841 75.0412C168.53 75.4919 168.08 75.8277 167.56 75.9971L169.522 78.872H167.455L165.733 76.2958H164.343V78.872H162.578V70.8176ZM166.135 74.7284C166.995 74.7284 167.49 74.2667 167.49 73.5877V73.5644C167.49 72.7885 166.964 72.4005 166.1 72.4005H164.343V74.7284H166.135Z" fill="white"/>
<path d="M183.585 74.4645H187.119V76.1445H183.585V74.4645Z" fill="white"/>
<path d="M201.19 77.6964L202.235 76.4432C202.891 77.0495 203.744 77.3969 204.635 77.4209C205.359 77.4209 205.797 77.1338 205.797 76.645V76.6217C205.797 76.1717 205.522 75.9427 204.179 75.5974C202.56 75.1823 201.515 74.7361 201.515 73.1338V73.1105C201.515 71.6478 202.677 70.6818 204.329 70.6818C205.413 70.6638 206.469 71.0261 207.314 71.706L206.397 73.0407C205.794 72.577 205.065 72.3065 204.306 72.2647C203.629 72.2647 203.273 72.5751 203.273 72.967V72.9902C203.273 73.5179 203.617 73.6925 205.007 74.0494C206.637 74.4762 207.554 75.062 207.554 76.4665V76.4898C207.554 78.0883 206.339 78.9884 204.604 78.9884C203.347 78.9929 202.131 78.533 201.19 77.6964Z" fill="white"/>
<path d="M213.906 70.8176H219.968V72.3928H215.664V74.0261H219.453V75.6013H215.664V77.2929H220.026V78.8681H213.906V70.8176Z" fill="white"/>
<path d="M234.128 77.6964L235.173 76.4432C235.828 77.0495 236.681 77.3969 237.573 77.4209C238.297 77.4209 238.734 77.1338 238.734 76.645V76.6217C238.734 76.1717 238.459 75.9427 237.116 75.5974C235.498 75.1823 234.453 74.7361 234.453 73.1338V73.1105C234.453 71.6478 235.614 70.6818 237.267 70.6818C238.351 70.6638 239.406 71.0261 240.251 71.706L239.334 73.0407C238.731 72.577 238.003 72.3065 237.244 72.2647C236.566 72.2647 236.21 72.5751 236.21 72.967V72.9902C236.21 73.5179 236.555 73.6925 237.944 74.0494C239.574 74.4762 240.492 75.062 240.492 76.4665V76.4898C240.492 78.0883 239.276 78.9884 237.542 78.9884C236.284 78.9929 235.069 78.533 234.128 77.6964Z" fill="white"/>
<path d="M246.72 75.419V70.8176H248.489V75.3724C248.489 76.6838 249.143 77.3628 250.223 77.3628C251.303 77.3628 251.957 76.7071 251.957 75.4229V70.8176H253.726V75.3608C253.726 77.8012 252.36 78.9961 250.204 78.9961C248.047 78.9961 246.72 77.7895 246.72 75.419Z" fill="white"/>
<path d="M260.341 70.8176H263.996C264.421 70.791 264.847 70.8497 265.249 70.9903C265.651 71.1309 266.021 71.3505 266.338 71.6362C266.569 71.8816 266.75 72.1712 266.868 72.4877C266.987 72.8042 267.04 73.1413 267.027 73.4791V73.5024C267.052 74.0499 266.897 74.5905 266.585 75.0412C266.274 75.4919 265.824 75.8277 265.304 75.9971L267.267 78.872H265.199L263.477 76.2958H262.087V78.872H260.318L260.341 70.8176ZM263.899 74.7284C264.758 74.7284 265.254 74.2667 265.254 73.5877V73.5644C265.254 72.7885 264.727 72.4005 263.864 72.4005H262.107V74.7284H263.899Z" fill="white"/>
<path d="M273.46 70.8176H276.743C278.678 70.8176 279.82 71.9582 279.82 73.6032V73.6265C279.82 75.4888 278.372 76.4588 276.572 76.4588H275.221V78.8759H273.452L273.46 70.8176ZM276.626 74.8797C277.509 74.8797 278.028 74.352 278.028 73.6614V73.6382C278.028 72.8622 277.478 72.4199 276.592 72.4199H275.221V74.8797H276.626Z" fill="white"/>
<path d="M287.898 70.7594H289.544L292.989 78.872H291.142L290.407 77.064H286.989L286.253 78.872H284.449L287.898 70.7594ZM289.756 75.5005L288.688 72.8894L287.608 75.5005H289.756Z" fill="white"/>
<path d="M298.362 77.6964L299.407 76.4432C300.062 77.0495 300.915 77.3969 301.807 77.4209C302.53 77.4209 302.968 77.1338 302.968 76.645V76.6217C302.968 76.1717 302.693 75.9427 301.35 75.5974C299.732 75.1823 298.687 74.7361 298.687 73.1338V73.1105C298.687 71.6478 299.848 70.6818 301.501 70.6818C302.584 70.6638 303.64 71.0261 304.485 71.706L303.568 73.0407C302.965 72.577 302.236 72.3065 301.478 72.2647C300.8 72.2647 300.444 72.5751 300.444 72.967V72.9902C300.444 73.5179 300.789 73.6925 302.178 74.0494C303.808 74.4762 304.725 75.062 304.725 76.4665V76.4898C304.725 78.0883 303.51 78.9884 301.776 78.9884C300.518 78.9933 299.302 78.5333 298.362 77.6964Z" fill="white"/>
<path d="M310.412 77.6964L311.457 76.4432C312.112 77.0495 312.965 77.3969 313.857 77.4209C314.581 77.4209 315.018 77.1338 315.018 76.645V76.6217C315.018 76.1717 314.743 75.9427 313.4 75.5974C311.782 75.1823 310.737 74.7361 310.737 73.1338V73.1105C310.737 71.6478 311.898 70.6818 313.551 70.6818C314.635 70.6638 315.69 71.0261 316.535 71.706L315.618 73.0407C315.015 72.577 314.287 72.3065 313.528 72.2647C312.85 72.2647 312.494 72.5751 312.494 72.967V72.9902C312.494 73.5179 312.839 73.6925 314.228 74.0494C315.858 74.4762 316.775 75.062 316.775 76.4665V76.4898C316.775 78.0883 315.56 78.9884 313.826 78.9884C312.568 78.9933 311.352 78.5333 310.412 77.6964Z" fill="white"/>
<path d="M323.128 70.8176H329.189V72.3928H324.885V74.0261H328.675V75.6013H324.885V77.2929H329.247V78.8681H323.128V70.8176Z" fill="white"/>
<path d="M335.638 70.8176H339.312C339.737 70.791 340.163 70.8497 340.565 70.9903C340.967 71.1309 341.337 71.3505 341.654 71.6362C341.886 71.8816 342.066 72.1712 342.184 72.4877C342.303 72.8042 342.357 73.1413 342.343 73.4791V73.5024C342.368 74.0499 342.213 74.5905 341.902 75.0412C341.59 75.4919 341.14 75.8277 340.62 75.9971L342.583 78.872H340.516L338.793 76.2958H337.403V78.872H335.634L335.638 70.8176ZM339.196 74.7284C340.055 74.7284 340.55 74.2667 340.55 73.5877V73.5644C340.55 72.7885 340.024 72.4005 339.161 72.4005H337.403V74.7284H339.196Z" fill="white"/>
</svg>
